<svg width="18" height="18" viewBox="0 0 18 18" fill="none" xmlns="http://www.w3.org/2000/svg">
  <g id="Loading">
    <g clip-path="url(#paint0_angular_19990_28783_clip_path)" data-figma-skip-parse="true">
      <g transform="matrix(-1.90719e-10 -0.006 -0.006 1.90719e-10 9 9)">
        <foreignObject x="-1333.33" y="-1333.33" width="2666.67" height="2666.67">
          <div xmlns="http://www.w3.org/1999/xhtml"
            style="background:conic-gradient(from 90deg,rgba(62, 92, 250, 0.9955) 0deg,rgba(62, 92, 250, 1) 0.404521deg,rgba(62, 92, 250, 0) 271.063deg,rgba(62, 92, 250, 0.9955) 360deg);height:100%;width:100%;opacity:1">
          </div>
        </foreignObject>
      </g>
    </g>
    <path id="1of3"
      d="M9 2C9.55228 2 10 2.44772 10 3C10 3.55229 9.55228 4 9 4L9 2ZM5.66658 4.01118L6.22215 4.84265L5.66658 4.01118ZM3.45672 6.7039L4.3806 7.08658L3.45672 6.7039ZM3.11529 10.1705L4.09607 9.97545L3.11529 10.1705ZM4.75736 13.2426L4.05025 13.9497L4.75736 13.2426ZM14 9C14 8.44772 14.4477 8 15 8C15.5523 8 16 8.44772 16 9L14 9ZM9 4C8.01109 4 7.04439 4.29325 6.22215 4.84265L5.11101 3.17971C6.26215 2.41054 7.61553 2 9 2L9 4ZM6.22215 4.84265C5.3999 5.39206 4.75904 6.17295 4.3806 7.08658L2.53284 6.32122C3.06266 5.04213 3.95986 3.94888 5.11101 3.17971L6.22215 4.84265ZM4.3806 7.08658C4.00216 8.00021 3.90315 9.00555 4.09607 9.97545L2.1345 10.3656C1.8644 9.00777 2.00303 7.6003 2.53284 6.32122L4.3806 7.08658ZM4.09607 9.97545C4.289 10.9454 4.7652 11.8363 5.46446 12.5355L4.05025 13.9497C3.07128 12.9708 2.4046 11.7235 2.1345 10.3656L4.09607 9.97545ZM5.46446 12.5355C6.16373 13.2348 7.05464 13.711 8.02455 13.9039L7.63437 15.8655C6.2765 15.5954 5.02922 14.9287 4.05025 13.9497L5.46446 12.5355ZM8.02455 13.9039C8.99445 14.0969 9.99979 13.9978 10.9134 13.6194L11.6788 15.4672C10.3997 15.997 8.99223 16.1356 7.63437 15.8655L8.02455 13.9039ZM10.9134 13.6194C11.827 13.241 12.6079 12.6001 13.1573 11.7779L14.8203 12.889C14.0511 14.0401 12.9579 14.9373 11.6788 15.4672L10.9134 13.6194ZM13.1573 11.7779C13.7068 10.9556 14 9.98891 14 9L16 9C16 10.3845 15.5895 11.7378 14.8203 12.889L13.1573 11.7779Z"
      data-figma-gradient-fill="{&#34;type&#34;:&#34;GRADIENT_ANGULAR&#34;,&#34;stops&#34;:[{&#34;color&#34;:{&#34;r&#34;:0.24313725531101227,&#34;g&#34;:0.36078432202339172,&#34;b&#34;:0.98039215803146362,&#34;a&#34;:1.0},&#34;position&#34;:0.0011236687423661351},{&#34;color&#34;:{&#34;r&#34;:0.24313725531101227,&#34;g&#34;:0.36078432202339172,&#34;b&#34;:0.98039215803146362,&#34;a&#34;:0.0},&#34;position&#34;:0.75295162200927734}],&#34;stopsVar&#34;:[],&#34;transform&#34;:{&#34;m00&#34;:-3.8143807046253642e-07,&#34;m01&#34;:-12.000001907348633,&#34;m02&#34;:15.0,&#34;m10&#34;:-11.999999046325684,&#34;m11&#34;:3.8143801361911756e-07,&#34;m12&#34;:14.999999046325684},&#34;opacity&#34;:1.0,&#34;blendMode&#34;:&#34;NORMAL&#34;,&#34;visible&#34;:true}" />
  </g>
  <defs>
    <clipPath id="paint0_angular_19990_28783_clip_path">
      <path id="1of3"
        d="M9 2C9.55228 2 10 2.44772 10 3C10 3.55229 9.55228 4 9 4L9 2ZM5.66658 4.01118L6.22215 4.84265L5.66658 4.01118ZM3.45672 6.7039L4.3806 7.08658L3.45672 6.7039ZM3.11529 10.1705L4.09607 9.97545L3.11529 10.1705ZM4.75736 13.2426L4.05025 13.9497L4.75736 13.2426ZM14 9C14 8.44772 14.4477 8 15 8C15.5523 8 16 8.44772 16 9L14 9ZM9 4C8.01109 4 7.04439 4.29325 6.22215 4.84265L5.11101 3.17971C6.26215 2.41054 7.61553 2 9 2L9 4ZM6.22215 4.84265C5.3999 5.39206 4.75904 6.17295 4.3806 7.08658L2.53284 6.32122C3.06266 5.04213 3.95986 3.94888 5.11101 3.17971L6.22215 4.84265ZM4.3806 7.08658C4.00216 8.00021 3.90315 9.00555 4.09607 9.97545L2.1345 10.3656C1.8644 9.00777 2.00303 7.6003 2.53284 6.32122L4.3806 7.08658ZM4.09607 9.97545C4.289 10.9454 4.7652 11.8363 5.46446 12.5355L4.05025 13.9497C3.07128 12.9708 2.4046 11.7235 2.1345 10.3656L4.09607 9.97545ZM5.46446 12.5355C6.16373 13.2348 7.05464 13.711 8.02455 13.9039L7.63437 15.8655C6.2765 15.5954 5.02922 14.9287 4.05025 13.9497L5.46446 12.5355ZM8.02455 13.9039C8.99445 14.0969 9.99979 13.9978 10.9134 13.6194L11.6788 15.4672C10.3997 15.997 8.99223 16.1356 7.63437 15.8655L8.02455 13.9039ZM10.9134 13.6194C11.827 13.241 12.6079 12.6001 13.1573 11.7779L14.8203 12.889C14.0511 14.0401 12.9579 14.9373 11.6788 15.4672L10.9134 13.6194ZM13.1573 11.7779C13.7068 10.9556 14 9.98891 14 9L16 9C16 10.3845 15.5895 11.7378 14.8203 12.889L13.1573 11.7779Z" />
    </clipPath>
  </defs>
</svg>